<svg xmlns="http://www.w3.org/2000/svg" viewBox="0 0 64 64" width="64" height="64">
  <defs>
    <radialGradient id="hbody" cx="50%" cy="38%" r="68%">
      <stop offset="0%" stop-color="#F4C57F"/>
      <stop offset="100%" stop-color="#E0A559"/>
    </radialGradient>
  </defs>
  <!-- feet -->
  <ellipse cx="24" cy="55.5" rx="6" ry="4" fill="#E0A559"/>
  <ellipse cx="40" cy="55.5" rx="6" ry="4" fill="#E0A559"/>
  <!-- ears -->
  <circle cx="20" cy="20" r="7" fill="#D2944C"/>
  <circle cx="44" cy="20" r="7" fill="#D2944C"/>
  <circle cx="20" cy="20.5" r="3.6" fill="#C07F3E"/>
  <circle cx="44" cy="20.5" r="3.6" fill="#C07F3E"/>
  <!-- body -->
  <ellipse cx="32" cy="34" rx="22" ry="21" fill="url(#hbody)"/>
  <!-- belly -->
  <ellipse cx="32" cy="40" rx="14" ry="13" fill="#FFF3E0"/>
  <!-- arms -->
  <ellipse cx="13.5" cy="40" rx="4.5" ry="6" fill="#E8B468"/>
  <ellipse cx="50.5" cy="40" rx="4.5" ry="6" fill="#E8B468"/>
  <!-- cheek blush -->
  <circle cx="19" cy="38" r="4.6" fill="#FF9E8A" opacity="0.55"/>
  <circle cx="45" cy="38" r="4.6" fill="#FF9E8A" opacity="0.55"/>
  <!-- eyes -->
  <circle cx="25" cy="32" r="3.4" fill="#3B2A1C"/>
  <circle cx="39" cy="32" r="3.4" fill="#3B2A1C"/>
  <circle cx="26.2" cy="30.8" r="1.15" fill="#fff"/>
  <circle cx="40.2" cy="30.8" r="1.15" fill="#fff"/>
  <!-- nose + mouth -->
  <ellipse cx="32" cy="37.4" rx="1.9" ry="1.4" fill="#C56B7A"/>
  <path d="M32 39 q-2.6 2.6 -5 0.4 M32 39 q2.6 2.6 5 0.4" stroke="#9A5A48" stroke-width="1" fill="none" stroke-linecap="round"/>
</svg>
