<svg xmlns="http://www.w3.org/2000/svg" viewBox="0 0 64 64" width="64" height="64">
  <defs>
    <radialGradient id="rbody" cx="50%" cy="40%" r="68%">
      <stop offset="0%" stop-color="#FFFFFF"/>
      <stop offset="100%" stop-color="#EFE4D6"/>
    </radialGradient>
  </defs>
  <!-- ears -->
  <ellipse cx="24" cy="13" rx="5" ry="13" fill="#F4EADE"/>
  <ellipse cx="40" cy="13" rx="5" ry="13" fill="#F4EADE"/>
  <ellipse cx="24" cy="14" rx="2.4" ry="9.2" fill="#FFC2CE"/>
  <ellipse cx="40" cy="14" rx="2.4" ry="9.2" fill="#FFC2CE"/>
  <!-- feet -->
  <ellipse cx="24" cy="56" rx="6" ry="4" fill="#EFE4D6"/>
  <ellipse cx="40" cy="56" rx="6" ry="4" fill="#EFE4D6"/>
  <!-- body -->
  <ellipse cx="32" cy="36" rx="20" ry="19" fill="url(#rbody)"/>
  <!-- belly -->
  <ellipse cx="32" cy="41" rx="12" ry="12" fill="#FFFDFB"/>
  <!-- arms -->
  <ellipse cx="15" cy="40.5" rx="4.5" ry="6" fill="#F7EFE6"/>
  <ellipse cx="49" cy="40.5" rx="4.5" ry="6" fill="#F7EFE6"/>
  <!-- cheek blush -->
  <circle cx="20" cy="39" r="4.3" fill="#FFAEBE" opacity="0.6"/>
  <circle cx="44" cy="39" r="4.3" fill="#FFAEBE" opacity="0.6"/>
  <!-- eyes -->
  <circle cx="26" cy="34" r="3.3" fill="#4A3A33"/>
  <circle cx="38" cy="34" r="3.3" fill="#4A3A33"/>
  <circle cx="27.1" cy="32.9" r="1.1" fill="#fff"/>
  <circle cx="39.1" cy="32.9" r="1.1" fill="#fff"/>
  <!-- nose + mouth -->
  <path d="M32 38 l-2 -1.6 h4 z" fill="#FF93A8"/>
  <path d="M32 38.2 v1.7 M32 39.9 q-2 1.8 -4 0.3 M32 39.9 q2 1.8 4 0.3" stroke="#B97C84" stroke-width="0.9" fill="none" stroke-linecap="round"/>
</svg>
